<svg width="18" height="18" viewBox="0 0 18 18" fill="none" xmlns="http://www.w3.org/2000/svg">
    <path
        d="M9.69 1.69501L14.5725 4.32751C15.1425 4.63501 15.1425 5.51251 14.5725 5.82001L9.69 8.45251C9.255 8.68501 8.745 8.68501 8.31 8.45251L3.4275 5.82001C2.8575 5.51251 2.8575 4.63501 3.4275 4.32751L8.31 1.69501C8.745 1.46251 9.255 1.46251 9.69 1.69501Z"
        stroke="#8C91A5" stroke-linecap="round" stroke-linejoin="round" />
    <path
        d="M2.7075 7.59749L7.245 9.86999C7.8075 10.155 8.1675 10.7325 8.1675 11.3625V15.6525C8.1675 16.275 7.515 16.6725 6.96 16.395L2.4225 14.1225C1.86 13.8375 1.5 13.26 1.5 12.63V8.33999C1.5 7.71749 2.1525 7.31999 2.7075 7.59749Z"
        stroke="#8C91A5" stroke-linecap="round" stroke-linejoin="round" />
    <path
        d="M15.293 7.59749L10.7555 9.86999C10.193 10.155 9.83301 10.7325 9.83301 11.3625V15.6525C9.83301 16.275 10.4855 16.6725 11.0405 16.395L15.578 14.1225C16.1405 13.8375 16.5005 13.26 16.5005 12.63V8.33999C16.5005 7.71749 15.848 7.31999 15.293 7.59749Z"
        stroke="#8C91A5" stroke-linecap="round" stroke-linejoin="round" />
</svg>
