<svg width="18" height="18" viewBox="0 0 18 18" fill="none" xmlns="http://www.w3.org/2000/svg">
    <path
        d="M17.25 13.5C17.25 14.0625 17.0925 14.595 16.815 15.045C16.6575 15.315 16.455 15.555 16.2225 15.75C15.6975 16.2225 15.0075 16.5 14.25 16.5C13.335 16.5 12.5175 16.0875 11.9775 15.4425C11.9625 15.42 11.94 15.405 11.925 15.3825C11.835 15.2775 11.7525 15.165 11.685 15.045C11.4075 14.595 11.25 14.0625 11.25 13.5C11.25 12.555 11.685 11.7075 12.375 11.16C12.8925 10.7475 13.545 10.5 14.25 10.5C15 10.5 15.675 10.77 16.2 11.2275C16.29 11.295 16.3725 11.3775 16.4475 11.46C16.9425 12 17.25 12.7125 17.25 13.5Z"
        stroke="#8C91A5" stroke-miterlimit="10" stroke-linecap="round" stroke-linejoin="round" />
    <path d="M15.3678 13.485H13.1328" stroke="#8C91A5" stroke-miterlimit="10" stroke-linecap="round"
        stroke-linejoin="round" />
    <path d="M14.25 12.39V14.6325" stroke="#8C91A5" stroke-miterlimit="10" stroke-linecap="round"
        stroke-linejoin="round" />
    <path d="M2.37695 5.58002L8.99945 9.41251L15.577 5.60249" stroke="#8C91A5"
        stroke-linecap="round" stroke-linejoin="round" />
    <path d="M8.99902 16.2075V9.405" stroke="#8C91A5" stroke-linecap="round"
        stroke-linejoin="round" />
    <path
        d="M16.207 6.8775V11.1225C16.207 11.16 16.207 11.19 16.1995 11.2275C15.6745 10.77 14.9995 10.5 14.2495 10.5C13.5445 10.5 12.892 10.7475 12.3745 11.16C11.6845 11.7075 11.2495 12.555 11.2495 13.5C11.2495 14.0625 11.407 14.595 11.6845 15.045C11.752 15.165 11.8345 15.2775 11.9245 15.3825L10.552 16.14C9.697 16.62 8.30199 16.62 7.44699 16.14L3.44199 13.92C2.53449 13.4175 1.79199 12.1575 1.79199 11.1225V6.8775C1.79199 5.8425 2.53449 4.58252 3.44199 4.08002L7.44699 1.86C8.30199 1.38 9.697 1.38 10.552 1.86L14.557 4.08002C15.4645 4.58252 16.207 5.8425 16.207 6.8775Z"
        stroke="#8C91A5" stroke-linecap="round" stroke-linejoin="round" />
</svg>
