<svg width="22" height="22" viewBox="0 0 22 22" fill="none" xmlns="http://www.w3.org/2000/svg">
    <path
        d="M11 13.75C12.5188 13.75 13.75 12.5188 13.75 11C13.75 9.48122 12.5188 8.25 11 8.25C9.48122 8.25 8.25 9.48122 8.25 11C8.25 12.5188 9.48122 13.75 11 13.75Z"
        stroke="#E5E5E5" stroke-miterlimit="10" stroke-linecap="round" stroke-linejoin="round" />
    <path
        d="M1.83301 11.8067V10.1933C1.83301 9.24001 2.61217 8.45168 3.57467 8.45168C5.23384 8.45168 5.91217 7.27835 5.07801 5.83918C4.60134 5.01418 4.88551 3.94168 5.71967 3.46501L7.30551 2.55751C8.02967 2.12668 8.96467 2.38335 9.39551 3.10751L9.49634 3.28168C10.3213 4.72085 11.678 4.72085 12.5122 3.28168L12.613 3.10751C13.0438 2.38335 13.9788 2.12668 14.703 2.55751L16.2888 3.46501C17.123 3.94168 17.4072 5.01418 16.9305 5.83918C16.0963 7.27835 16.7747 8.45168 18.4338 8.45168C19.3872 8.45168 20.1755 9.23085 20.1755 10.1933V11.8067C20.1755 12.76 19.3963 13.5483 18.4338 13.5483C16.7747 13.5483 16.0963 14.7217 16.9305 16.1608C17.4072 16.995 17.123 18.0583 16.2888 18.535L14.703 19.4425C13.9788 19.8733 13.0438 19.6167 12.613 18.8925L12.5122 18.7183C11.6872 17.2792 10.3305 17.2792 9.49634 18.7183L9.39551 18.8925C8.96467 19.6167 8.02967 19.8733 7.30551 19.4425L5.71967 18.535C4.88551 18.0583 4.60134 16.9858 5.07801 16.1608C5.91217 14.7217 5.23384 13.5483 3.57467 13.5483C2.61217 13.5483 1.83301 12.76 1.83301 11.8067Z"
        stroke="#E5E5E5" stroke-miterlimit="10" stroke-linecap="round" stroke-linejoin="round" />
</svg>
