<svg width="20" height="20" viewBox="0 0 20 20" fill="none" xmlns="http://www.w3.org/2000/svg">
    <path
        d="M18.3337 5.20832V9.4583C18.3337 10.5166 17.9837 11.4083 17.3587 12.025C16.742 12.65 15.8503 13 14.792 13V14.5083C14.792 15.075 14.1587 15.4167 13.692 15.1L12.8837 14.5666C12.9587 14.3083 12.992 14.025 12.992 13.725V10.3333C12.992 8.63334 11.8587 7.49999 10.1587 7.49999H4.50032C4.38365 7.49999 4.27533 7.50834 4.16699 7.51667V5.20832C4.16699 3.08332 5.58366 1.66666 7.70866 1.66666H14.792C16.917 1.66666 18.3337 3.08332 18.3337 5.20832Z"
        stroke="#BABABA" stroke-miterlimit="10" stroke-linecap="round" stroke-linejoin="round" />
    <path
        d="M12.992 10.3334V13.725C12.992 14.025 12.9587 14.3083 12.8837 14.5667C12.5753 15.7917 11.5587 16.5583 10.1587 16.5583H7.89199L5.37532 18.2333C5.00032 18.4917 4.50032 18.2167 4.50032 17.7667V16.5583C3.65032 16.5583 2.94199 16.275 2.45033 15.7833C1.95033 15.2833 1.66699 14.575 1.66699 13.725V10.3334C1.66699 8.75002 2.65033 7.65835 4.16699 7.51668C4.27533 7.50835 4.38365 7.5 4.50032 7.5H10.1587C11.8587 7.5 12.992 8.63335 12.992 10.3334Z"
        stroke="#BABABA" stroke-miterlimit="10" stroke-linecap="round" stroke-linejoin="round" />
</svg>
