<svg width="73" height="47" viewBox="0 0 73 47" fill="none" xmlns="http://www.w3.org/2000/svg">
    <path fill-rule="evenodd" clip-rule="evenodd"
        d="M18.3778 37.7553V37.7762H8.16797L12.7894 32.2303C12.7714 32.0375 12.7623 31.844 12.7624 31.6504V6.12587C12.7624 2.74286 15.5052 0 18.8882 0H57.6854C61.0685 0 63.8113 2.74286 63.8113 6.12587V31.6504C63.8113 35.0334 61.0685 37.7762 57.6854 37.7762H18.8882C18.7162 37.7762 18.5462 37.7691 18.3778 37.7553Z"
        fill="#FF0000" />
    <path fill-rule="evenodd" clip-rule="evenodd"
        d="M20.4198 36.7553H10.21L13.838 32.4013C13.8023 32.1563 13.7834 31.9056 13.7834 31.6504V6.12589C13.7834 3.30646 16.0688 1.021 18.8883 1.021H57.6855C60.5049 1.021 62.7904 3.30646 62.7904 6.12589V31.6504C62.7904 34.4698 60.5049 36.7553 57.6855 36.7553H20.4198Z"
        fill="white" />
    <path
        d="M43.9018 17.3567H23.4822C23.2002 17.3567 22.9717 17.5852 22.9717 17.8672C22.9717 18.1491 23.2002 18.3777 23.4822 18.3777H43.9018C44.1837 18.3777 44.4122 18.1491 44.4122 17.8672C44.4122 17.5852 44.1837 17.3567 43.9018 17.3567Z"
        fill="#FF0000" />
    <path
        d="M37.7759 11.2308H23.4822C23.2002 11.2308 22.9717 11.4594 22.9717 11.7413C22.9717 12.0233 23.2002 12.2518 23.4822 12.2518H37.7759C38.0578 12.2518 38.2864 12.0233 38.2864 11.7413C38.2864 11.4594 38.0578 11.2308 37.7759 11.2308Z"
        fill="#FF0000" />
    <path
        d="M34.7129 23.4824H23.4822C23.2002 23.4824 22.9717 23.711 22.9717 23.9929C22.9717 24.2748 23.2002 24.5034 23.4822 24.5034H34.7129C34.9949 24.5034 35.2234 24.2748 35.2234 23.9929C35.2234 23.711 34.9949 23.4824 34.7129 23.4824Z"
        fill="#FF0000" />
    <path
        d="M43.9025 23.4824H38.7976C38.5157 23.4824 38.2871 23.711 38.2871 23.9929C38.2871 24.2748 38.5157 24.5034 38.7976 24.5034H43.9025C44.1844 24.5034 44.413 24.2748 44.413 23.9929C44.413 23.711 44.1844 23.4824 43.9025 23.4824Z"
        fill="#FF0000" />
    <path
        d="M53.091 17.3567H47.9861C47.7041 17.3567 47.4756 17.5852 47.4756 17.8672C47.4756 18.1491 47.7041 18.3777 47.9861 18.3777H53.091C53.3729 18.3777 53.6015 18.1491 53.6015 17.8672C53.6015 17.5852 53.3729 17.3567 53.091 17.3567Z"
        fill="#FF0000" />
    <path fill-rule="evenodd" clip-rule="evenodd"
        d="M71.6389 14.8043L72.9999 16.1658L72.3194 16.8462L70.9579 15.4853L69.5965 16.8462L68.916 16.1658L70.2769 14.8043L68.916 13.4428L69.5965 12.7623L70.9579 14.1233L72.3189 12.7623L72.9994 13.4428L71.6389 14.8043ZM39.9886 44.9232L41.3495 46.2846L40.6691 46.9651L39.3076 45.6042L37.9461 46.9651L37.2656 46.2846L38.6266 44.9232L37.2656 43.5617L37.9461 42.8812L39.3076 44.2422L40.6685 42.8812L41.349 43.5617L39.9886 44.9232Z"
        fill="#FF0000" />
    <path
        d="M2.55245 27.5664C1.8755 27.5664 1.22627 27.2975 0.747595 26.8188C0.268918 26.3402 0 25.6909 0 25.014C0 24.337 0.268918 23.6878 0.747595 23.2091C1.22627 22.7305 1.8755 22.4615 2.55245 22.4615C3.2294 22.4615 3.87862 22.7305 4.3573 23.2091C4.83598 23.6878 5.1049 24.337 5.1049 25.014C5.1049 25.6909 4.83598 26.3402 4.3573 26.8188C3.87862 27.2975 3.2294 27.5664 2.55245 27.5664ZM2.55245 26.5455C2.95862 26.5455 3.34815 26.3841 3.63536 26.0969C3.92257 25.8097 4.08392 25.4202 4.08392 25.014C4.08392 24.6078 3.92257 24.2183 3.63536 23.9311C3.34815 23.6439 2.95862 23.4825 2.55245 23.4825C2.14628 23.4825 1.75674 23.6439 1.46954 23.9311C1.18233 24.2183 1.02098 24.6078 1.02098 25.014C1.02098 25.4202 1.18233 25.8097 1.46954 26.0969C1.75674 26.3841 2.14628 26.5455 2.55245 26.5455Z"
        fill="#FF0000" />
</svg>
