<svg width="25" height="25" viewBox="0 0 25 25" fill="none" xmlns="http://www.w3.org/2000/svg">
    <path
        d="M2.11467 19.0938C2.11467 19.4688 2.198 19.8542 2.37508 20.2292C2.55217 20.6042 2.78133 20.9583 3.08341 21.2917C3.59383 21.8542 4.15633 22.2604 4.79175 22.5208C5.41675 22.7813 6.09383 22.9167 6.823 22.9167C7.8855 22.9167 9.02092 22.6667 10.2188 22.1563C11.4167 21.6458 12.6147 20.9583 13.8022 20.0938C15.0001 19.2188 16.1355 18.25 17.2188 17.1771C18.2917 16.0938 19.2605 14.9583 20.1251 13.7708C20.9792 12.5833 21.6667 11.3958 22.1667 10.2188C22.6667 9.03126 22.9167 7.89584 22.9167 6.81251C22.9167 6.10418 22.7917 5.42709 22.5417 4.80209C22.2917 4.16668 21.8959 3.58334 21.3438 3.06251C20.6772 2.40626 19.948 2.08334 19.1772 2.08334C18.8855 2.08334 18.5938 2.14584 18.3334 2.27084C18.0626 2.39584 17.823 2.58334 17.6355 2.85418L15.2188 6.26043C15.0313 6.52084 14.8959 6.76043 14.8022 6.98959C14.7084 7.20834 14.6563 7.42709 14.6563 7.62501C14.6563 7.87501 14.7292 8.12501 14.8751 8.36459C15.0105 8.60418 15.2084 8.85418 15.4584 9.10418L16.2501 9.92709C16.3647 10.0417 16.4167 10.1771 16.4167 10.3438C16.4167 10.4271 16.4063 10.5 16.3855 10.5833C16.3542 10.6667 16.323 10.7292 16.3022 10.7917C16.1147 11.1354 15.7917 11.5833 15.3334 12.125C14.8647 12.6667 14.3647 13.2188 13.823 13.7708C13.2605 14.3229 12.7188 14.8333 12.1667 15.3021C11.6251 15.7604 11.1772 16.0729 10.823 16.2604C10.7709 16.2813 10.7084 16.3125 10.6355 16.3438C10.5522 16.375 10.4688 16.3854 10.3751 16.3854C10.198 16.3854 10.0626 16.3229 9.948 16.2083L9.15633 15.4271C8.89592 15.1667 8.64591 14.9688 8.40633 14.8438C8.16675 14.6979 7.92717 14.625 7.66675 14.625C7.46883 14.625 7.2605 14.6667 7.03133 14.7604C6.80217 14.8542 6.56258 14.9896 6.30216 15.1667L2.85425 17.6146C2.58342 17.8021 2.39592 18.0208 2.28133 18.2813C2.17717 18.5417 2.11467 18.8021 2.11467 19.0938Z"
        stroke="#FF0000" stroke-width="1.5" stroke-miterlimit="10" />
</svg>
