<svg id="svg" version="1.1" xmlns="http://www.w3.org/2000/svg" width="400"
    height="485.3586247777119" viewBox="0, 0, 400,485.3586247777119">
    <g id="svgg">
        <path id="path0"
            d="M194.902 23.770 C 194.837 23.834,193.770 23.958,192.531 24.045 C 182.394 24.761,169.150 28.956,160.569 34.170 C 159.734 34.677,159.007 35.092,158.954 35.092 C 158.837 35.092,155.365 37.379,153.883 38.432 C 150.250 41.013,145.097 45.504,142.739 48.144 C 141.891 49.093,140.981 50.092,140.717 50.364 C 138.349 52.803,131.120 62.967,131.120 63.856 C 131.120 63.918,130.646 64.811,130.066 65.842 C 122.074 80.055,119.079 100.507,122.487 117.605 C 126.788 139.184,139.014 157.078,157.676 169.105 C 163.617 172.934,170.948 176.189,178.897 178.528 C 207.769 187.022,242.379 175.987,261.022 152.341 C 261.845 151.298,262.731 150.178,262.993 149.852 C 281.779 126.414,283.807 88.428,267.671 62.241 C 267.430 61.849,267.056 61.209,266.840 60.818 C 262.474 52.916,250.922 41.206,242.516 36.162 C 242.297 36.030,241.123 35.320,239.908 34.584 C 231.217 29.318,221.163 25.863,209.959 24.292 C 207.492 23.946,195.160 23.519,194.902 23.770 M198.459 199.901 C 194.481 203.033,191.090 205.730,190.924 205.895 C 190.092 206.719,195.216 215.071,198.776 218.696 C 200.719 220.673,205.149 224.066,205.788 224.066 C 206.783 224.066,216.444 215.575,216.829 214.362 C 216.915 214.092,217.067 213.871,217.167 213.871 C 217.425 213.871,219.680 209.499,220.376 207.650 L 220.958 206.103 219.134 204.664 C 218.130 203.872,216.402 202.470,215.293 201.549 C 214.185 200.627,212.478 199.239,211.500 198.464 C 210.522 197.689,208.930 196.410,207.962 195.623 C 206.994 194.835,206.087 194.195,205.946 194.199 C 205.806 194.203,202.436 196.769,198.459 199.901 M141.197 196.327 C 140.154 196.987,138.554 198.056,137.641 198.703 C 134.875 200.664,132.108 202.557,130.566 203.542 C 128.372 204.944,119.068 211.130,117.809 212.023 C 107.692 219.201,95.641 230.088,87.134 239.735 C 86.741 240.181,85.617 241.452,84.638 242.561 C 82.809 244.631,81.217 246.571,78.430 250.129 C 77.553 251.248,76.750 252.270,76.645 252.401 C 73.391 256.462,66.381 266.740,62.979 272.436 C 59.631 278.042,58.858 279.401,56.398 284.013 C 53.923 288.650,53.321 289.855,50.421 295.961 C 49.059 298.829,45.554 306.945,44.505 309.662 C 44.177 310.510,43.513 312.217,43.029 313.456 C 38.758 324.384,34.320 339.202,31.644 351.467 C 31.184 353.578,30.650 356.022,30.458 356.899 C 29.117 363.034,26.870 378.450,25.851 388.500 C 25.587 391.108,25.323 393.669,25.265 394.191 C 25.207 394.713,25.094 395.886,25.014 396.799 C 24.933 397.712,24.827 398.779,24.778 399.170 C 22.544 417.028,26.008 437.932,34.010 454.873 C 39.635 466.782,50.529 476.931,59.971 479.059 C 62.567 479.644,93.342 479.852,204.861 480.037 C 340.960 480.263,351.374 480.067,357.287 477.156 C 373.734 469.060,385.457 446.709,387.435 419.680 C 388.216 409.004,387.275 390.637,385.200 376.052 C 385.135 375.596,384.963 374.369,384.817 373.325 C 384.508 371.113,383.638 365.766,382.927 361.707 C 381.933 356.036,379.442 344.999,377.949 339.656 C 373.995 325.499,369.711 313.165,365.266 303.142 C 362.489 296.880,361.263 294.296,358.402 288.678 C 355.145 282.281,351.804 276.260,349.229 272.145 C 348.554 271.066,347.473 269.330,346.827 268.287 C 344.311 264.223,335.238 251.388,334.341 250.622 C 334.264 250.557,333.755 249.917,333.210 249.200 C 332.664 248.483,332.024 247.681,331.788 247.419 C 331.551 247.157,330.952 246.439,330.457 245.824 C 329.962 245.210,329.429 244.570,329.272 244.404 C 329.115 244.238,328.404 243.408,327.693 242.561 C 324.645 238.929,317.011 230.954,313.367 227.594 C 308.962 223.532,308.345 222.989,304.090 219.426 C 301.169 216.980,299.252 215.491,295.436 212.703 C 294.718 212.180,294.008 211.646,293.857 211.518 C 293.706 211.389,293.012 210.909,292.316 210.450 C 291.619 209.991,290.622 209.317,290.101 208.952 C 289.335 208.416,286.289 206.463,283.452 204.689 C 282.639 204.180,275.684 200.204,274.452 199.543 C 273.180 198.861,273.159 198.849,270.738 197.339 C 267.930 195.588,268.862 194.439,262.190 207.878 C 255.285 221.786,252.424 227.665,246.355 240.427 C 245.084 243.100,242.871 247.742,241.438 250.741 C 240.005 253.740,238.377 257.155,237.820 258.328 C 237.263 259.502,235.528 263.130,233.963 266.390 C 232.398 269.650,230.558 273.491,229.874 274.926 C 224.425 286.347,217.991 299.214,212.031 310.611 C 208.259 317.822,206.561 320.998,206.175 321.564 C 205.834 322.065,186.397 283.360,167.990 245.525 C 166.784 243.047,164.812 238.992,163.607 236.515 C 159.813 228.717,152.297 213.112,150.189 208.654 C 145.691 199.148,143.737 195.251,143.440 195.194 C 143.250 195.157,142.240 195.667,141.197 196.327 M204.455 230.139 C 202.600 233.484,197.041 243.646,195.196 247.066 C 194.879 247.653,194.056 249.146,193.367 250.385 C 192.678 251.624,191.742 253.331,191.286 254.179 C 190.830 255.027,190.101 256.360,189.667 257.143 C 187.401 261.223,187.587 260.628,187.938 262.646 C 188.894 268.141,191.747 275.888,194.514 280.498 C 194.709 280.824,195.432 282.051,196.119 283.225 C 197.209 285.085,201.581 292.034,203.225 294.517 C 203.538 294.990,204.201 296.042,204.699 296.854 L 205.605 298.331 208.824 293.505 C 217.822 280.009,220.526 274.803,222.845 266.509 C 223.716 263.391,224.280 260.168,224.026 259.751 C 223.642 259.120,222.712 257.444,221.857 255.839 C 221.336 254.861,220.728 253.794,220.506 253.468 C 220.284 253.142,219.594 251.915,218.971 250.741 C 218.349 249.567,217.548 248.127,217.192 247.540 C 216.835 246.953,215.901 245.299,215.115 243.865 C 214.329 242.430,213.000 240.030,212.161 238.530 C 211.322 237.030,209.716 234.149,208.591 232.128 C 205.674 226.883,206.138 227.106,204.455 230.139 M314.123 336.633 C 313.745 338.296,312.958 341.790,312.374 344.398 C 311.791 347.007,311.157 349.781,310.966 350.563 C 310.776 351.346,310.038 354.547,309.327 357.676 C 308.616 360.806,307.327 366.461,306.463 370.243 C 305.598 374.025,304.478 378.933,303.973 381.150 C 303.468 383.367,302.346 388.275,301.480 392.057 C 300.613 395.839,299.498 400.747,299.001 402.964 C 298.503 405.181,297.654 408.915,297.114 411.263 C 296.573 413.610,295.487 418.358,294.701 421.814 C 293.914 425.270,293.069 428.951,292.823 429.994 C 292.577 431.037,292.004 433.545,291.551 435.566 C 290.283 441.215,288.078 450.810,287.940 451.274 C 287.822 451.669,283.711 451.689,205.916 451.689 L 124.016 451.689 123.870 451.037 C 123.790 450.679,123.575 449.798,123.391 449.081 C 123.208 448.364,122.733 446.283,122.335 444.458 C 121.937 442.632,121.407 440.285,121.157 439.241 C 120.907 438.198,120.273 435.424,119.747 433.076 C 119.222 430.729,118.634 428.168,118.442 427.386 C 118.250 426.603,116.903 420.735,115.449 414.345 C 113.995 407.955,112.671 402.140,112.508 401.423 C 112.344 400.705,111.820 398.358,111.342 396.206 C 110.865 394.055,110.374 391.921,110.251 391.464 C 110.128 391.008,109.698 389.140,109.296 387.315 C 108.894 385.489,108.362 383.142,108.113 382.098 C 107.865 381.055,107.232 378.281,106.706 375.934 C 106.181 373.586,105.584 370.972,105.380 370.124 C 104.804 367.724,104.714 367.332,102.167 356.135 C 99.019 342.296,99.255 343.336,98.188 338.589 C 97.675 336.307,97.182 334.253,97.091 334.025 C 96.934 333.630,102.209 333.610,205.869 333.610 L 314.812 333.610 314.123 336.633 M201.930 376.066 C 197.834 377.082,192.655 382.013,191.662 385.842 C 191.099 388.011,191.235 393.984,191.888 395.781 C 195.662 406.160,209.221 408.837,217.055 400.748 L 218.224 399.542 217.101 398.554 C 213.199 395.119,213.039 389.258,216.735 385.179 C 219.051 382.623,219.059 382.483,217.003 380.441 C 215.401 378.848,212.901 377.135,211.187 376.455 C 209.791 375.901,203.636 375.642,201.930 376.066 "
            stroke="none" fill="#4c4c4c" fill-rule="evenodd" />
        <path id="path1" d="" stroke="none" fill="#504c4c" fill-rule="evenodd" />
        <path id="path2" d="" stroke="none" fill="#504c4c" fill-rule="evenodd" />
        <path id="path3" d="" stroke="none" fill="#504c4c" fill-rule="evenodd" />
        <path id="path4" d="" stroke="none" fill="#504c4c" fill-rule="evenodd" />
    </g>
</svg>